<svg xmlns="http://www.w3.org/2000/svg" viewBox="0 0 235.81 36.9">
  <defs>
    <style>
      .cls-1 {
        fill: #221815;
      }

      .cls-2 {
        fill: #6cbb5a;
      }

      .cls-3 {
        fill: #fff;
      }

      .cls-4 {
        fill: #aacf52;
      }
    </style>
  </defs>
  <g id="レイヤー_2" data-name="レイヤー 2">
    <g id="レイヤー_1-2" data-name="レイヤー 1">
      <g>
        <g>
          <path class="cls-1" d="M34,1.58a3.1,3.1,0,0,1-.12.29,7.34,7.34,0,0,1-1.54,2.71,1.88,1.88,0,0,0-.52-.47A5.23,5.23,0,0,0,33,2.24a3.87,3.87,0,0,0,.29-.91ZM37.86,4c-.13.17-.13.17-.32.45A6.87,6.87,0,0,1,35.62,6.3a8.63,8.63,0,0,1-3,1.13,2.14,2.14,0,0,0-.35-.63,8.07,8.07,0,0,0,2.92-1A5.1,5.1,0,0,0,37.29,3.6ZM35.76.26a5.61,5.61,0,0,0,0,.83V4.14c0,.52-.19.66-1,.66-.2,0-.47,0-.75,0a2.06,2.06,0,0,0-.14-.64,4.58,4.58,0,0,0,.86.11c.3,0,.37,0,.37-.18v-3a4.06,4.06,0,0,0,0-.83Zm1.61,1a3.93,3.93,0,0,0,.45,1,4.81,4.81,0,0,0,1.23,1.34,2.52,2.52,0,0,0-.44.53A6.46,6.46,0,0,1,37,2c-.13-.26-.16-.32-.22-.42Z"/>
          <path class="cls-1" d="M40.34,5.41V5a4.13,4.13,0,0,1-.48.25,1.24,1.24,0,0,0-.3-.5,5.38,5.38,0,0,0,1.66-.95,3,3,0,0,1-.57-.61,4.62,4.62,0,0,1-.65.61,2,2,0,0,0-.34-.41,3.64,3.64,0,0,0,1.11-1.17A2.13,2.13,0,0,0,41,1.61l.54.14a1.65,1.65,0,0,0-.13.24l-.1.18h.76a2.13,2.13,0,0,0,.49,0l.31.32a1.29,1.29,0,0,0-.13.18,6.93,6.93,0,0,1-.83,1.12,6.14,6.14,0,0,0,1.36.67,1.79,1.79,0,0,0-.23.5l-.32-.14a6,6,0,0,0,0,.67v1c0,.49,0,.49,0,.72h-.57V6.86H40.89v.46h-.58a4.81,4.81,0,0,0,0-.72Zm.91-4.6a2.62,2.62,0,0,0,0-.52h.65a2.47,2.47,0,0,0,0,.53V1h1.33V.46a3.92,3.92,0,0,0,.78,0H46a3.46,3.46,0,0,0,.77,0v.62A5.32,5.32,0,0,0,46,1h-.7a4.93,4.93,0,0,1-.28.76h.71a5.22,5.22,0,0,0,.72,0c0,.2,0,.4,0,.7V5.11c0,.33,0,.51,0,.77-.23,0-.43,0-.67,0H44a5.4,5.4,0,0,0-.66,0c0-.23,0-.49,0-.71V2.51c0-.32,0-.52,0-.74a3.86,3.86,0,0,0,.67,0h.44c.12-.31.2-.55.26-.76h-.82a6.65,6.65,0,0,0-.73,0,2.62,2.62,0,0,0,0,.43v.23a2.64,2.64,0,0,0,0,.48h-.54V1.52h-2.3v.8h-.56a3.44,3.44,0,0,0,0-.46V1.5c0-.16,0-.26,0-.49.12,0,.29,0,.64,0h.8Zm1,4a3.57,3.57,0,0,0,.53,0,6.73,6.73,0,0,1-1.15-.69,5.2,5.2,0,0,1-1,.71h1.58ZM40.89,6.37h1.3V5.28h-1.3Zm.17-3.74-.12.17a3.47,3.47,0,0,0,.61.65,3.69,3.69,0,0,0,.63-.82Zm3.58,3.66A4.54,4.54,0,0,1,43.2,7.35a1.61,1.61,0,0,0-.38-.48,3.34,3.34,0,0,0,1.37-1ZM44,3h2V2.29H44Zm0,1.18h2V3.46H44Zm0,1.2h2V4.64H44Zm1.56.59a4.59,4.59,0,0,0,1.51,1,2.41,2.41,0,0,0-.36.52,5.32,5.32,0,0,1-1.57-1.15Z"/>
          <path class="cls-1" d="M48.61,1.85A4.74,4.74,0,0,1,48,2.93a1.48,1.48,0,0,0-.48-.36A4.25,4.25,0,0,0,48.37.88a3.5,3.5,0,0,0,.11-.65l.6.12A1.82,1.82,0,0,0,49,.7c0,.16-.1.38-.18.62h1.05a3.71,3.71,0,0,0,.66,0v.61a4.3,4.3,0,0,0-.67,0h-.22c0,.9,0,.9,0,1.4H50a2.89,2.89,0,0,0,.62,0v.64a3.85,3.85,0,0,0-.63,0h-.48c0,.15,0,.2,0,.37a3.65,3.65,0,0,0,1.28,1.43,2.81,2.81,0,0,0-.4.51,4.25,4.25,0,0,1-1-1.24A4.62,4.62,0,0,1,47.94,7a1.91,1.91,0,0,0-.4-.49A4,4,0,0,0,49,3.81h-.62a4.79,4.79,0,0,0-.7,0V3.21a3.56,3.56,0,0,0,.7,0H49a13.23,13.23,0,0,0,0-1.4Zm4.12,4.59a8.4,8.4,0,0,0,.72-1.89l.59.2a9.9,9.9,0,0,1-.73,1.69h.76a3.89,3.89,0,0,0,.73,0V7a5.07,5.07,0,0,0-.73,0h-3a5,5,0,0,0-.73,0V6.4a3.84,3.84,0,0,0,.73,0ZM50.65.62a3.84,3.84,0,0,0,.73,0h2.54a3.68,3.68,0,0,0,.73,0v.64a5,5,0,0,0-.73,0H51.38a5.25,5.25,0,0,0-.73,0Zm3.59,3.16a4,4,0,0,0,0,.62,4.87,4.87,0,0,0-.7,0h-2a4.73,4.73,0,0,0-.69,0,4.09,4.09,0,0,0,0-.62V2.61a4.29,4.29,0,0,0,0-.64,4.53,4.53,0,0,0,.71,0h2a4.69,4.69,0,0,0,.71,0,4.16,4.16,0,0,0,0,.64ZM51.76,6.23a4.86,4.86,0,0,0-.66-1.46l.51-.21A5.56,5.56,0,0,1,52.29,6Zm-.26-2.4h2.15V2.54H51.5Z"/>
          <path class="cls-1" d="M56.3,1.05a6.89,6.89,0,0,0,0-.72h.63a4.75,4.75,0,0,0,0,.72V1.2H58.2V1.05a4.35,4.35,0,0,0,0-.72h.62a6.57,6.57,0,0,0,0,.72V1.2a4.73,4.73,0,0,0,.63,0v.57a5,5,0,0,0-.63,0V5a4.18,4.18,0,0,0,.59,0v.57l-.71,0h-2.5a4.67,4.67,0,0,0-.62,0V4.92a3.1,3.1,0,0,0,.61,0h.19V1.7a4.79,4.79,0,0,0-.69,0V1.16a4.27,4.27,0,0,0,.65,0h0ZM57.19,6A4.57,4.57,0,0,1,56,7.35a1.82,1.82,0,0,0-.43-.45,3.06,3.06,0,0,0,1.16-1.22Zm1-3.54V1.7H56.85v.73Zm0,1.22V2.91H56.85v.74ZM58.2,5V4.13H56.85V5Zm0,.72a2.55,2.55,0,0,0,.76.81,2.09,2.09,0,0,0-.43.41A3.9,3.9,0,0,1,57.74,6Zm2-.83a4.24,4.24,0,0,1-.9,2.53,1.62,1.62,0,0,0-.47-.44,2.89,2.89,0,0,0,.74-1.67,29.72,29.72,0,0,0,.15-3.72c0-.52,0-.7,0-.93a7.51,7.51,0,0,0,.77,0h1.1a7.64,7.64,0,0,0,.77,0,7.42,7.42,0,0,0,0,.79V6.66c0,.52-.18.66-.89.66-.14,0-.21,0-.6,0a2.5,2.5,0,0,0-.16-.64,4,4,0,0,0,.83.1c.18,0,.25,0,.25-.18V4.85ZM60.27,3c0,.43,0,1,0,1.35h1.5V3Zm1.46-1.8H60.28V2.45h1.45Z"/>
          <path class="cls-1" d="M64.21,4c0-.3,0-.6,0-.92a4.38,4.38,0,0,1-.76,1l0-.12a2.27,2.27,0,0,0-.28-.46A6.21,6.21,0,0,0,64.6,1.25,5.9,5.9,0,0,0,64.91.18l.64.2a4.4,4.4,0,0,0-.16.42,9,9,0,0,1-.6,1.45V6.44a6.71,6.71,0,0,0,0,.92h-.67a8.14,8.14,0,0,0,0-.93ZM67.5,3h-.85c-.39,0-.57,0-.83,0a4.84,4.84,0,0,0,0-.72V1.28a4.9,4.9,0,0,0,0-.7,5,5,0,0,0,.87,0h2.37a4.81,4.81,0,0,0,.85,0c0,.25,0,.39,0,.73v1a6.41,6.41,0,0,0,0,.7L69.1,3h-1v.78h1.55a6.31,6.31,0,0,0,.79,0v.64a5.49,5.49,0,0,0-.79,0H68.27a6.2,6.2,0,0,0,1,1,6,6,0,0,0,1.37.85,3.69,3.69,0,0,0-.4.58A8.1,8.1,0,0,1,69.06,6,4.81,4.81,0,0,1,68,4.8a7.68,7.68,0,0,1,0,.84v1a5.66,5.66,0,0,0,0,.75h-.66a5.94,5.94,0,0,0,0-.76v-1a7.86,7.86,0,0,1,0-.84A4.92,4.92,0,0,1,66.4,6.12a6.07,6.07,0,0,1-1.05.74,1.73,1.73,0,0,0-.4-.53,6.22,6.22,0,0,0,1.48-1,4,4,0,0,0,.84-1H66.06a4.88,4.88,0,0,0-.81,0V3.77a6.14,6.14,0,0,0,.81,0H67.5Zm-1.06-.54h2.85V1.16H66.44Z"/>
          <path class="cls-1" d="M75.09,2.57a6.76,6.76,0,0,0-.69,0V2.17a5.29,5.29,0,0,1-.86.53,1.29,1.29,0,0,0-.36-.47c-.14.3-.17.36-.32.65A2.19,2.19,0,0,1,73.44,4a3,3,0,0,1,.1.83c0,.43-.14.7-.42.8a1.74,1.74,0,0,1-.64.09h-.17a1.51,1.51,0,0,0-.15-.59,2.07,2.07,0,0,0,.4,0c.33,0,.42-.09.42-.47a2.58,2.58,0,0,0-.22-1A1.89,1.89,0,0,0,72.29,3,11.56,11.56,0,0,0,73.09,1H72V6.58a4.25,4.25,0,0,0,0,.78H71.4a4.17,4.17,0,0,0,0-.78V1.1c0-.22,0-.4,0-.63A4,4,0,0,0,72,.5h1a1.87,1.87,0,0,0,.49,0l.31.35a9,9,0,0,0-.38.89c-.06.15-.1.23-.22.49a4.53,4.53,0,0,0,1-.6A4.23,4.23,0,0,0,75.43.25h.62a4.68,4.68,0,0,0,2.51,1.86,1.61,1.61,0,0,0-.37.56,5.26,5.26,0,0,1-.9-.5v.42a6.45,6.45,0,0,0-.68,0h-.55v.62h1.12l.71,0c0,.24,0,.38,0,.58v.89a3.76,3.76,0,0,0,0,.61,5.44,5.44,0,0,0-.76,0h-1a3,3,0,0,0,.88,1,4.33,4.33,0,0,0,1.41.64,2.09,2.09,0,0,0-.35.56,4.08,4.08,0,0,1-2.33-1.87,3.27,3.27,0,0,1-2.3,1.9,1.68,1.68,0,0,0-.37-.53,3.94,3.94,0,0,0,1.49-.66,2.08,2.08,0,0,0,.73-1h-.8a5,5,0,0,0-.71,0s0-.08,0-.11,0-.26,0-.4V3.69a4.27,4.27,0,0,0,0-.52,6.25,6.25,0,0,0,.68,0h1.07V2.57Zm-.77,1.12v1h1.09a6.06,6.06,0,0,0,.1-1Zm2.29-1.64h.49A5.56,5.56,0,0,1,75.77.73,5.32,5.32,0,0,1,74.56,2h2ZM76,3.69a6.88,6.88,0,0,1-.09,1h1.38v-1Z"/>
          <path class="cls-1" d="M80.69,6a4,4,0,0,0,1.53.32c1,0,1.21-.48,1.21-.93s-.23-.82-1-1.18L82,4c-.94-.42-1.2-.89-1.2-1.6,0-1,.74-1.64,2-1.64A5,5,0,0,1,84,.9v.72a4.19,4.19,0,0,0-1.35-.22c-.74,0-1.1.37-1.1.89s.18.73.84,1l.43.2c1,.46,1.36.8,1.36,1.65a1.77,1.77,0,0,1-2,1.76,4.18,4.18,0,0,1-1.55-.26Z"/>
          <path class="cls-1" d="M85.11,6a4,4,0,0,0,1.53.32c1,0,1.21-.48,1.21-.93s-.23-.82-1-1.18L86.44,4c-.94-.42-1.2-.89-1.2-1.6,0-1,.74-1.64,2-1.64A5,5,0,0,1,88.46.9v.72a4.19,4.19,0,0,0-1.35-.22c-.74,0-1.1.37-1.1.89s.18.73.84,1l.43.2c1,.46,1.36.8,1.36,1.65a1.77,1.77,0,0,1-2,1.76,4.16,4.16,0,0,1-1.54-.26Z"/>
          <path class="cls-1" d="M89.91,6.84v-6h.74v6Z"/>
          <path class="cls-1" d="M94.05,7.6A5.53,5.53,0,0,1,92.5,3.8,5.53,5.53,0,0,1,94.05,0h.63a5.58,5.58,0,0,0-1.55,3.8,5.58,5.58,0,0,0,1.55,3.8Z"/>
          <path class="cls-1" d="M95.21,6a4,4,0,0,0,1.53.32c1,0,1.22-.48,1.22-.93s-.23-.82-1-1.18L96.54,4c-.93-.42-1.2-.89-1.2-1.6,0-1,.74-1.64,2-1.64A4.87,4.87,0,0,1,98.56.9v.72a4.15,4.15,0,0,0-1.35-.22c-.74,0-1.1.37-1.1.89s.18.73.84,1l.43.2c1,.46,1.36.8,1.36,1.65a1.77,1.77,0,0,1-2,1.76,4.18,4.18,0,0,1-1.55-.26Z"/>
          <path class="cls-1" d="M99.77,6.84V2.4h.68v.36a2,2,0,0,1,1.25-.41,1.4,1.4,0,0,1,1.22.58,2.18,2.18,0,0,1,1.52-.58,1.4,1.4,0,0,1,1.5,1.56V6.84h-.73V4c0-.77-.43-1.06-.95-1.06a1.64,1.64,0,0,0-1.12.45,2.1,2.1,0,0,1,.06.51V6.84h-.74V4c0-.77-.43-1-.95-1a1.56,1.56,0,0,0-1,.35V6.84Z"/>
          <path class="cls-1" d="M109.58,6.84a2,2,0,0,1-.08-.44,2,2,0,0,1-1.38.49,1.22,1.22,0,0,1-1.32-1.2c0-.88.42-1.39,2.61-1.5V4.07c0-.61-.28-1.1-.94-1.1a2.73,2.73,0,0,0-1.11.23V2.63a3.15,3.15,0,0,1,1.31-.29c1.07,0,1.45.73,1.45,1.61V5.39a7.41,7.41,0,0,0,.1,1.45Zm-.17-2.09c-1.46.12-1.86.34-1.86.85a.67.67,0,0,0,.75.7,1.89,1.89,0,0,0,1.11-.38Z"/>
          <path class="cls-1" d="M112.4,6.84c-.67,0-1.06-.23-1.06-1V.42h.73V5.67c0,.42.14.53.46.53h.25v.64Z"/>
          <path class="cls-1" d="M114.63,6.84c-.67,0-1.06-.23-1.06-1V.42h.72V5.67c0,.42.15.53.47.53H115v.64Z"/>
          <path class="cls-1" d="M116.82,6.84l2.26-6h.86l2.26,6h-.81l-.63-1.7H118.2l-.62,1.7Zm1.61-2.35h2.09l-1-2.83Z"/>
          <path class="cls-1" d="M123,6.84V2.4h.68v.36a2,2,0,0,1,1.25-.41,1.4,1.4,0,0,1,1.22.58,2.18,2.18,0,0,1,1.52-.58,1.4,1.4,0,0,1,1.5,1.56V6.84h-.73V4c0-.77-.43-1.06-.95-1.06a1.64,1.64,0,0,0-1.12.45,2.1,2.1,0,0,1,.06.51V6.84h-.74V4c0-.77-.43-1-1-1a1.56,1.56,0,0,0-1,.35V6.84Z"/>
          <path class="cls-1" d="M130.15,4.69c0-1.54.79-2.35,2-2.35s2,.67,2,2.22-.8,2.35-2,2.35S130.15,6.24,130.15,4.69Zm3.32-.07c0-1.26-.57-1.68-1.29-1.68s-1.28.42-1.28,1.68.57,1.69,1.28,1.69S133.47,5.88,133.47,4.62Z"/>
          <path class="cls-1" d="M138,6.84V6.32a2.05,2.05,0,0,1-1.4.56,1.4,1.4,0,0,1-1.45-1.59V2.4h.74V5.21c0,.77.4,1.07,1,1.07A1.54,1.54,0,0,0,138,5.76V2.4h.74V6.84Z"/>
          <path class="cls-1" d="M140,6.84V2.4h.69v.47A2,2,0,0,1,142,2.35a1.41,1.41,0,0,1,1.51,1.56V6.84h-.74V4c0-.76-.42-1.06-.94-1.06a1.75,1.75,0,0,0-1.15.47V6.84Z"/>
          <path class="cls-1" d="M146.79,6.83a4.27,4.27,0,0,1-.75.08c-.83,0-1.16-.32-1.16-1.06V3h-.75V2.4h.75V1.24l.71-.3V2.4h1.16V3h-1.16V5.76c0,.4.15.56.75.56a2.89,2.89,0,0,0,.45,0Z"/>
          <path class="cls-1" d="M153.33,6.84l-.6-.64a2.7,2.7,0,0,1-2,.72,1.66,1.66,0,0,1-1.85-1.59c0-.81.41-1.29,1.33-1.92a2.1,2.1,0,0,1-.66-1.36A1.3,1.3,0,0,1,150.9.71a1.16,1.16,0,0,1,1.31,1.18c0,.76-.42,1.09-1.06,1.57l1.52,1.66A5.12,5.12,0,0,0,153,3.25h.66a4.93,4.93,0,0,1-.48,2.38c.36.39.73.81,1.11,1.21Zm-2.78-3c-.67.47-.94.79-.94,1.37a1.13,1.13,0,0,0,1.27,1.13,1.82,1.82,0,0,0,1.43-.59Zm.32-2.53a.65.65,0,0,0-.64.72c0,.28.05.49.54,1a1.42,1.42,0,0,0,.76-1.1A.62.62,0,0,0,150.87,1.29Z"/>
          <path class="cls-1" d="M156.45,6a4,4,0,0,0,1.53.32c1,0,1.22-.48,1.22-.93s-.24-.82-1-1.18L157.78,4c-.93-.42-1.2-.89-1.2-1.6,0-1,.74-1.64,2-1.64A4.89,4.89,0,0,1,159.8.9v.72a4.15,4.15,0,0,0-1.35-.22c-.74,0-1.1.37-1.1.89s.18.73.84,1l.43.2c1,.46,1.36.8,1.36,1.65a1.77,1.77,0,0,1-2,1.76,4.18,4.18,0,0,1-1.55-.26Z"/>
          <path class="cls-1" d="M161,6.84V.42h.73V2.83A1.89,1.89,0,0,1,163,2.35a1.42,1.42,0,0,1,1.52,1.56V6.84h-.75V4c0-.76-.42-1.06-.94-1.06a1.65,1.65,0,0,0-1.15.48V6.84Z"/>
          <path class="cls-1" d="M165.49,4.69c0-1.54.8-2.35,2-2.35s2,.67,2,2.22-.8,2.35-2,2.35S165.49,6.24,165.49,4.69Zm3.33-.07c0-1.26-.58-1.68-1.29-1.68s-1.29.42-1.29,1.68.58,1.69,1.29,1.69S168.82,5.88,168.82,4.62Z"/>
          <path class="cls-1" d="M170.54,6.84V2.4h.68v.84h0a1.23,1.23,0,0,1,1.23-.9,1.15,1.15,0,0,1,.3,0V3a1.07,1.07,0,0,0-.29,0c-.61,0-1.23.37-1.23,1.44V6.84Z"/>
          <path class="cls-1" d="M175.77,6.83a4.26,4.26,0,0,1-.74.08c-.84,0-1.17-.32-1.17-1.06V3h-.75V2.4h.75V1.24l.71-.3V2.4h1.16V3h-1.16V5.76c0,.4.15.56.75.56a2.89,2.89,0,0,0,.45,0Z"/>
          <path class="cls-1" d="M179.69,6.84V1.5h-2.08V.82h4.91V1.5h-2.09V6.84Z"/>
          <path class="cls-1" d="M185.64,6.74a4.68,4.68,0,0,1-1.26.16,1.91,1.91,0,0,1-2.13-2.14c0-1.5.79-2.4,2-2.4A1.61,1.61,0,0,1,186,4.18v.64h-3c0,1.13.65,1.5,1.62,1.5a3.86,3.86,0,0,0,1-.13Zm-.39-2.51c0-1-.46-1.27-1.1-1.27s-1,.34-1.13,1.27Z"/>
          <path class="cls-1" d="M186.9,6.84V2.4h.68v.84h0a1.23,1.23,0,0,1,1.23-.9,1.3,1.3,0,0,1,.31,0V3a1.19,1.19,0,0,0-.3,0c-.61,0-1.23.37-1.23,1.44V6.84Z"/>
          <path class="cls-1" d="M189.85,6.84V2.4h.67v.36a2,2,0,0,1,1.25-.41,1.41,1.41,0,0,1,1.23.58,2.18,2.18,0,0,1,1.52-.58A1.41,1.41,0,0,1,196,3.91V6.84h-.74V4c0-.77-.42-1.06-.95-1.06a1.66,1.66,0,0,0-1.12.45,2.09,2.09,0,0,1,.07.51V6.84h-.74V4c0-.77-.43-1-.95-1a1.59,1.59,0,0,0-1,.35V6.84Z"/>
          <path class="cls-1" d="M199.37,6.84v-6h.74v6Z"/>
          <path class="cls-1" d="M201.61,6.84V2.4h.68v.47a2,2,0,0,1,1.38-.52,1.41,1.41,0,0,1,1.51,1.56V6.84h-.74V4c0-.76-.43-1.06-.95-1.06a1.78,1.78,0,0,0-1.15.47V6.84Z"/>
          <path class="cls-1" d="M206.08,6.09a3.17,3.17,0,0,0,1.14.23c.64,0,.92-.26.92-.67a.59.59,0,0,0-.46-.62L207,4.81a1.12,1.12,0,0,1-.88-1.13c0-.88.65-1.35,1.58-1.35a4.11,4.11,0,0,1,1,.12v.63a3.39,3.39,0,0,0-1.1-.17c-.54,0-.79.26-.79.63a.55.55,0,0,0,.44.63l.76.25a1.06,1.06,0,0,1,.83,1.11c0,.84-.62,1.37-1.63,1.37a4.11,4.11,0,0,1-1.15-.15Z"/>
          <path class="cls-1" d="M212.57,6.84V6.32a2,2,0,0,1-1.39.56,1.41,1.41,0,0,1-1.46-1.59V2.4h.74V5.21c0,.77.4,1.07,1,1.07a1.54,1.54,0,0,0,1.13-.52V2.4h.74V6.84Z"/>
          <path class="cls-1" d="M214.54,6.84V2.4h.68v.84h0a1.23,1.23,0,0,1,1.23-.9,1.15,1.15,0,0,1,.3,0V3a1.07,1.07,0,0,0-.29,0c-.61,0-1.23.37-1.23,1.44V6.84Z"/>
          <path class="cls-1" d="M219.78,6.84a2,2,0,0,1-.09-.44,2,2,0,0,1-1.38.49A1.22,1.22,0,0,1,217,5.69c0-.88.42-1.39,2.61-1.5V4.07c0-.61-.28-1.1-.94-1.1a2.73,2.73,0,0,0-1.11.23V2.63a3.15,3.15,0,0,1,1.31-.29c1.08,0,1.45.73,1.45,1.61V5.39a7.31,7.31,0,0,0,.11,1.45Zm-.18-2.09c-1.45.12-1.86.34-1.86.85a.67.67,0,0,0,.75.7,1.87,1.87,0,0,0,1.11-.38Z"/>
          <path class="cls-1" d="M221.5,6.84V2.4h.69v.47a2,2,0,0,1,1.37-.52,1.41,1.41,0,0,1,1.51,1.56V6.84h-.74V4c0-.76-.43-1.06-1-1.06a1.78,1.78,0,0,0-1.15.47V6.84Z"/>
          <path class="cls-1" d="M229.24,6.77a3.5,3.5,0,0,1-1,.13A2,2,0,0,1,226,4.8a2.16,2.16,0,0,1,2.32-2.44,4.22,4.22,0,0,1,.92.09v.62a4.26,4.26,0,0,0-.94-.11c-1.13,0-1.57.64-1.57,1.71s.43,1.65,1.69,1.65a3.73,3.73,0,0,0,.84-.09Z"/>
          <path class="cls-1" d="M233.08,6.74a4.6,4.6,0,0,1-1.25.16,1.92,1.92,0,0,1-2.14-2.14c0-1.5.79-2.4,2-2.4a1.6,1.6,0,0,1,1.73,1.82v.64h-3c0,1.13.66,1.5,1.63,1.5a3.78,3.78,0,0,0,1-.13Zm-.39-2.51c0-1-.46-1.27-1.09-1.27s-1,.34-1.14,1.27Z"/>
          <path class="cls-1" d="M233.62,7.6a5.54,5.54,0,0,0,1.56-3.8A5.54,5.54,0,0,0,233.62,0h.64a5.58,5.58,0,0,1,1.55,3.8,5.58,5.58,0,0,1-1.55,3.8Z"/>
        </g>
        <path class="cls-2" d="M20.51,21C17,15.22,22.65,8.48,36.88,18a31,31,0,0,1,6.67,6c-13.41-8.41-18.69-1.88-15.26,3.78a8.58,8.58,0,0,1-5.81-4.59A5.15,5.15,0,0,0,20.4,21l.11,0m-6.91,5.3A6.68,6.68,0,0,0,10,25.1c.86,1.4,2,3.2,3.5,5.57A19.81,19.81,0,0,0,21,36.9c-5-7.79-5.41-9.22-7.37-10.57M13,24a6,6,0,0,1,6-3.49,9.33,9.33,0,0,1-4.3-4.11c-2.3-4.13-7.5-3.06-9.49.92L2,18.43a6.42,6.42,0,0,1,3.82,1.22c1.41,1,2,2,4.12,5.4Z"/>
        <path class="cls-3" d="M10.38,17.36a.8.8,0,1,1-.79-.79.8.8,0,0,1,.79.79"/>
        <path class="cls-2" d="M18.16,24a.8.8,0,1,1-.79-.79.8.8,0,0,1,.79.79"/>
        <path class="cls-2" d="M6,12.77c.61-4.59,4.13-9,9.79-8.41C15.6,8,12.09,12.16,6,12.77"/>
        <path class="cls-4" d="M6,12.77C5.6,10,3.45,7.27,0,7.64c.09,2.24,2.24,4.76,6,5.13"/>
        <path class="cls-2" d="M6,12.77a9,9,0,0,0-1.67,2.37,12.84,12.84,0,0,0-1,2.71c-.06.23-.11.47-.16.71s-.08.47-.13.71S3,19.75,3,20s0,.24,0,.36l0,.36a17.8,17.8,0,0,0,0,2.92,10.69,10.69,0,0,1-.35-2.93c0-.5.05-1,.1-1.48,0-.25.07-.5.12-.74s.09-.49.15-.73l.2-.72.24-.7.3-.69c.11-.22.23-.44.35-.66a6.69,6.69,0,0,1,2-2.21"/>
        <path class="cls-1" d="M194.74,17.82a8.88,8.88,0,0,1-2.12,2.75.39.39,0,0,1-.26.1.58.58,0,0,1-.53-.53.34.34,0,0,1,.15-.29,7.46,7.46,0,0,0,2.25-2.58h-1.42a.37.37,0,0,1-.39-.31.53.53,0,0,1-.42.3.27.27,0,0,1-.25-.2,7,7,0,0,0-.4-.95v5a.44.44,0,0,1-.88,0V17c-.31,1.23-.46,1.72-.81,1.72a.49.49,0,0,1-.46-.47.37.37,0,0,1,.05-.2,12.94,12.94,0,0,0,1.22-3h-.78c-.2,0-.31-.22-.31-.44s.11-.43.31-.43h.78V12.9a.44.44,0,0,1,.88,0v1.28h.7a.38.38,0,0,1,.37.43.39.39,0,0,1-.37.44h-.67c.43.63.85,1.19,1.06,1.57a.39.39,0,0,1,.37-.25h1.93v-1.5h-1.1c-.49,1.18-.64,1.28-.86,1.28a.58.58,0,0,1-.56-.53.42.42,0,0,1,.06-.21,7.9,7.9,0,0,0,1-2.43.36.36,0,0,1,.38-.31.46.46,0,0,1,.49.43,3.71,3.71,0,0,1-.23.86h.81V12.9a.41.41,0,0,1,.45-.41.41.41,0,0,1,.45.41V14h1.84a.4.4,0,0,1,.41.45.41.41,0,0,1-.41.46h-1.84v1.5h2.08a.41.41,0,0,1,.42.45.42.42,0,0,1-.42.45h-1.57a7.16,7.16,0,0,0,2,2.48.35.35,0,0,1,.14.29.58.58,0,0,1-.5.55c-.35,0-1.38-1.1-2.17-2.78v3.3a.41.41,0,0,1-.45.41.41.41,0,0,1-.45-.41Z"/>
        <path class="cls-1" d="M201.26,16.4h-1.35a.43.43,0,0,1-.42-.45.42.42,0,0,1,.42-.45h3.86a.41.41,0,0,1,.41.45.41.41,0,0,1-.41.45H202.2v3.53c.74-.13,1.39-.24,1.73-.32l.12,0a.39.39,0,0,1,.38.42.52.52,0,0,1-.39.51c-.53.15-2.61.51-4.25.74h-.07a.48.48,0,0,1-.45-.52.39.39,0,0,1,.34-.42c.53-.07,1.08-.16,1.65-.25Zm4-2c.18,3.45,1.06,6.08,1.64,6.08.4,0,.42-1,.54-1.61a.42.42,0,0,1,.41-.36.47.47,0,0,1,.47.47s0,.05,0,.07c-.18,1.09-.26,2.44-1.43,2.44-1.66,0-2.4-3.88-2.57-7.09h-4.61a.43.43,0,0,1-.41-.47.43.43,0,0,1,.41-.47h4.57V13a.48.48,0,0,1,1,0h0v.51h1.32l-.17-.24a.44.44,0,0,1-.11-.28.42.42,0,0,1,.45-.37.49.49,0,0,1,.39.19,5.84,5.84,0,0,1,1.1,1.88.46.46,0,0,1-.46.46.43.43,0,0,1-.4-.28,4.23,4.23,0,0,0-.22-.42Z"/>
        <path class="cls-1" d="M191.09,26.67a.46.46,0,0,1-.44-.47.44.44,0,0,1,.18-.37,8.12,8.12,0,0,1-1.09.34.58.58,0,0,1-.51-.6.41.41,0,0,1,.3-.42,10.53,10.53,0,0,0,3.57-1.77,1.05,1.05,0,0,1,.66-.24,1,1,0,0,1,.66.24,9.91,9.91,0,0,0,3.56,1.8.39.39,0,0,1,.3.41.58.58,0,0,1-.52.59,5.24,5.24,0,0,1-1-.31.47.47,0,0,1,.14.34.45.45,0,0,1-.43.46Zm1.7,1.85A20.32,20.32,0,0,1,191.5,31c2.2-.12,4-.3,4.89-.43a13.33,13.33,0,0,0-.83-1,.42.42,0,0,1-.11-.28.5.5,0,0,1,.49-.46.35.35,0,0,1,.26.12,19.28,19.28,0,0,1,1.86,2.43.48.48,0,0,1,.09.27.59.59,0,0,1-.55.56.34.34,0,0,1-.31-.19q-.16-.3-.36-.6a66.32,66.32,0,0,1-7.08.64h0a.48.48,0,0,1-.46-.52.38.38,0,0,1,.38-.42l.56,0a13.83,13.83,0,0,0,1.43-2.52h-2a.42.42,0,0,1-.41-.45.41.41,0,0,1,.41-.45h8a.4.4,0,0,1,.41.45.41.41,0,0,1-.41.45Zm3.74-2.76a12.82,12.82,0,0,1-2.67-1.6l-.06,0-.07,0a13.68,13.68,0,0,1-2.77,1.6Z"/>
        <path class="cls-1" d="M200.92,28.26c-.87.67-1.06.74-1.18.74a.51.51,0,0,1-.48-.5.39.39,0,0,1,.2-.35,8.5,8.5,0,0,0,2.82-2.62s0,0,0-.05a0,0,0,0,0,0,0H200a.4.4,0,0,1-.41-.43.4.4,0,0,1,.41-.43h.95v-1a.47.47,0,0,1,.93,0v1h.71a.63.63,0,0,1,.69.68,3.46,3.46,0,0,1-1.12,1.88l1.11.92a.37.37,0,0,1,.15.3.54.54,0,0,1-.49.52.36.36,0,0,1-.25-.1c-.24-.21-.59-.59-.8-.77v3.76a.47.47,0,0,1-.93,0Zm2.19,3.64a.48.48,0,0,1,0-.95h2.14V26.08H203.8a.44.44,0,0,1-.42-.47.43.43,0,0,1,.42-.47h1.45V23.61a.48.48,0,0,1,.53-.47.48.48,0,0,1,.51.47v1.53h1.41a.42.42,0,0,1,.41.47.43.43,0,0,1-.41.47h-1.41V31h1.6a.48.48,0,0,1,0,.95Z"/>
        <path class="cls-1" d="M49.55,18.18c0-2.81,2.43-5,6.66-5,3.86,0,6.4,1.59,6.83,4.48a1.28,1.28,0,0,1,.05.27A1.22,1.22,0,0,1,61.77,19a1.1,1.1,0,0,1-1.11-.77c-.3-1.73-1.73-2.82-4.5-2.82s-4.22,1.18-4.22,2.79c0,1.25.93,1.78,2.68,2.23,1.27.34,3.11.57,4.58,1,2.84.74,4.55,2.27,4.55,5,0,3.13-2.25,5.52-7.36,5.52-4.22,0-7.13-2.09-7.43-5.5,0-.06,0-.13,0-.2a1.25,1.25,0,0,1,1.32-1.14,1,1,0,0,1,1.07.84c.18,2.09,2.08,3.66,5.06,3.66,3.52,0,4.88-1.48,4.88-3.22,0-1.25-.89-2.28-2.68-2.78-1.36-.4-3.11-.56-4.75-1-2.74-.75-4.29-2-4.29-4.36Z"/>
        <path class="cls-1" d="M67.38,18.18c0-2.81,2.43-5,6.66-5,3.85,0,6.4,1.59,6.83,4.48a1.28,1.28,0,0,1,0,.27A1.23,1.23,0,0,1,79.6,19a1.12,1.12,0,0,1-1.12-.77c-.29-1.73-1.72-2.82-4.49-2.82s-4.22,1.18-4.22,2.79c0,1.25.92,1.78,2.67,2.23,1.28.34,3.12.57,4.59,1,2.84.74,4.54,2.27,4.54,5,0,3.13-2.25,5.52-7.35,5.52-4.23,0-7.13-2.09-7.43-5.5,0-.06,0-.13,0-.2a1.25,1.25,0,0,1,1.32-1.14,1,1,0,0,1,1.06.84c.18,2.09,2.09,3.66,5.07,3.66,3.51,0,4.88-1.48,4.88-3.22,0-1.25-.89-2.28-2.68-2.78-1.36-.4-3.11-.56-4.75-1-2.75-.75-4.29-2-4.29-4.36Z"/>
        <path class="cls-1" d="M86.64,14.43c0-.68.63-1,1.27-1a1.12,1.12,0,0,1,1.25,1V30.65a1.12,1.12,0,0,1-1.25,1c-.64,0-1.27-.34-1.27-1Z"/>
        <path class="cls-1" d="M97.17,19.05c.46,0,.94,0,1.44,0,2.34,0,5-.13,7.67-.33-.32-.62-.61-1.23-.88-1.85-2.14.18-4.39.26-6.57.26h-.72a1,1,0,0,1-1-1,.93.93,0,0,1,1-1h.84c2,0,3.93-.06,5.81-.2a6.45,6.45,0,0,1-.31-1.32c0-.61.63-.94,1.25-.94a.93.93,0,0,1,1,.63,11.65,11.65,0,0,0,.36,1.44c1.93-.2,3.77-.47,5.45-.77a.61.61,0,0,1,.23,0,1.1,1.1,0,0,1,1,1.08.85.85,0,0,1-.77.86c-1.61.31-3.41.57-5.29.77a19,19,0,0,0,.88,1.83c2.18-.22,4.23-.51,5.88-.84a1.42,1.42,0,0,1,.28,0,1.09,1.09,0,0,1,1.09,1.13.91.91,0,0,1-.8.94c-1.68.27-3.43.49-5.27.69a32.77,32.77,0,0,0,3.43,4.09,1.15,1.15,0,0,1,.34.8,1.39,1.39,0,0,1-1.36,1.32,1.47,1.47,0,0,1-.79-.24,14.72,14.72,0,0,0-7.36-1.9c-2.5,0-4.7.62-4.7,2.42s2.16,2.85,6.29,2.85a32.27,32.27,0,0,0,6.22-.56,2,2,0,0,1,.32,0,1.06,1.06,0,0,1,1,1.12,1.07,1.07,0,0,1-1,1.13,41.44,41.44,0,0,1-6.63.53c-5.2,0-8.49-1.81-8.49-5,0-3,2.88-4.34,7-4.34a16.27,16.27,0,0,1,5.72,1,22.26,22.26,0,0,1-2.34-3c-3.2.28-6.58.46-10.15.46a1,1,0,0,1-1-1,.93.93,0,0,1,.88-1Z"/>
        <path class="cls-1" d="M137.8,19.14c0,1.3,0,2.49-.11,3.55a18.07,18.07,0,0,1,2.59,1.47,1.16,1.16,0,0,1,.52,1,1.23,1.23,0,0,1-1.07,1.26,1.15,1.15,0,0,1-.59-.2,17,17,0,0,0-1.77-1.12c-.82,4.4-2.9,5.9-6.63,6.94a2.24,2.24,0,0,1-.48.06,1.29,1.29,0,0,1-1.33-1.28,1,1,0,0,1,.79-1c3.25-.82,5-2.14,5.58-5.76a17.72,17.72,0,0,0-5.85-1.34c-1.18,3.44-3.32,8.11-6.86,8.11-1.73,0-3.09-1.39-3.09-3.7,0-3.07,2.84-6.26,8.29-6.48.77-2.53,1.18-4.34,1.18-4.4,0-.25-.18-.36-.52-.36-1.52.05-3,.14-4.66.14-.39,0-.77,0-1.16,0a1.08,1.08,0,0,1-1-1.14,1,1,0,0,1,1-1c.62,0,1.23,0,1.79,0,1.5,0,2.91,0,4.41-.08H129c1.54,0,2.31.77,2.31,2,0,.48-.18,1.45-1.25,5a22.6,22.6,0,0,1,5.43,1.05c0-.37,0-.77,0-1.19,0-.81,0-1.71-.09-2.7v-.09a1,1,0,0,1,1.11-1A1.17,1.17,0,0,1,137.8,18Zm-16,7.91c0,.94.43,1.39,1,1.39,2,0,3.7-4.19,4.22-5.62-3.93.48-5.24,2.69-5.24,4.23"/>
        <path class="cls-1" d="M161.49,29.34a1.11,1.11,0,0,1,1.18,1.14,1.25,1.25,0,0,1-1.18,1.26c-2,.15-3.93.26-5.7.26-6.79,0-11.49-1.41-11.49-5.94,0-2.76,2.2-5,6.38-6.44-.13-2-.34-3.87-.57-5.9v-.13c0-.69.71-1.1,1.39-1.1a1.18,1.18,0,0,1,1.29,1.08c.09,1.8.18,3.5.27,5.33a50.5,50.5,0,0,1,7.5-1.19l.23,0A1.13,1.13,0,0,1,162,18.81,1.15,1.15,0,0,1,160.9,20c-9.45.72-14.1,3.12-14.1,6,0,2.69,3.31,3.63,8.65,3.63,1.75,0,3.72-.1,5.86-.28Zm.75-11.79a.83.83,0,0,1-.66-.33,18.66,18.66,0,0,0-2-2,.69.69,0,0,1-.3-.55.85.85,0,0,1,.86-.77c.23,0,.8.09,2.71,2.31a.9.9,0,0,1,.2.53.86.86,0,0,1-.86.81m1.2-2a14.09,14.09,0,0,0-1.81-1.76.73.73,0,0,1-.3-.55.77.77,0,0,1,.79-.73,1,1,0,0,1,.53.2c2.11,1.72,2.18,2.16,2.18,2.36a.83.83,0,0,1-.8.79.76.76,0,0,1-.59-.31"/>
        <path class="cls-1" d="M173.07,32.38a1.21,1.21,0,0,1-1.36-1.21A1.12,1.12,0,0,1,172.78,30h.13c7.36,0,8.52-3.79,8.52-8.5,0-5.05-1.28-6.7-2.84-6.7a3.58,3.58,0,0,0-1.68.51c-2,1-4.56,6-5.84,10.22a1.29,1.29,0,0,1-1.27.9,1.27,1.27,0,0,1-1.31-1.23c-.1-1.41-.12-2.71-.12-3.95a59.74,59.74,0,0,1,.52-7.84,1.1,1.1,0,0,1,1.18-1,1.21,1.21,0,0,1,1.32,1.08.78.78,0,0,1,0,.22,42.56,42.56,0,0,0-.7,7.1c1.81-4.17,4.08-8.22,8.1-8.22,2.41,0,5,1.8,5,8.88,0,5.26-1.29,10.88-10.62,10.88Z"/>
      </g>
    </g>
  </g>
</svg>
